<?xml version="1.0" standalone="no"?>
<!DOCTYPE svg PUBLIC "-//W3C//DTD SVG 20010904//EN"
 "http://www.w3.org/TR/2001/REC-SVG-20010904/DTD/svg10.dtd">
<svg version="1.0" xmlns="http://www.w3.org/2000/svg"
 width="500.000000pt" height="500.000000pt" viewBox="0 0 500.000000 500.000000"
 preserveAspectRatio="xMidYMid meet">
<metadata>
Created by potrace 1.14, written by Peter Selinger 2001-2017
</metadata>
<g transform="translate(0.000000,500.000000) scale(0.100000,-0.100000)"
fill="#000000" stroke="none">
<path d="M2140 4990 c-30 -4 -95 -12 -145 -18 -49 -7 -112 -16 -140 -21 -27
-6 -88 -17 -135 -26 -47 -9 -103 -20 -125 -25 -22 -5 -71 -17 -110 -26 -409
-95 -693 -257 -784 -448 -45 -94 -58 -152 -82 -356 -6 -52 -15 -122 -19 -155
-4 -33 -13 -103 -19 -155 -6 -52 -15 -124 -21 -160 -5 -36 -17 -121 -25 -190
-8 -69 -20 -154 -25 -190 -6 -36 -15 -108 -21 -160 -6 -52 -15 -120 -19 -150
-5 -30 -9 -556 -9 -1167 l-1 -1113 164 0 165 0 3 -207 c4 -241 11 -268 97
-345 143 -129 371 -94 473 72 28 46 39 131 37 305 l-1 170 1097 0 1097 0 -1
-170 c-2 -174 9 -259 37 -305 103 -166 336 -201 475 -71 85 79 91 104 95 343
l3 208 165 0 164 0 -1 1113 c0 611 -4 1137 -9 1167 -4 30 -13 98 -19 150 -6
52 -15 124 -21 160 -5 36 -16 119 -25 185 -8 66 -17 138 -19 160 -3 22 -12 92
-20 155 -9 63 -20 151 -26 195 -6 44 -17 132 -25 195 -23 188 -30 218 -77 316
-89 190 -374 353 -783 448 -38 9 -88 21 -110 26 -22 5 -78 16 -125 25 -47 9
-107 20 -135 26 -27 5 -88 14 -135 20 -47 5 -116 14 -155 19 -81 11 -624 11
-705 0z m1263 -412 c60 -55 49 -156 -19 -184 -49 -21 -1729 -21 -1778 0 -68
28 -79 129 -19 184 l24 22 884 0 884 0 24 -22z m487 -488 c44 -26 62 -44 80
-80 17 -34 42 -151 55 -255 3 -27 13 -97 21 -155 8 -58 22 -154 30 -215 8 -60
19 -139 24 -175 5 -36 16 -114 25 -175 43 -313 43 -341 7 -393 -15 -20 -36
-33 -66 -41 -64 -16 -3078 -16 -3142 0 -30 8 -51 21 -66 41 -36 52 -36 80 7
393 9 61 20 139 25 175 5 36 16 115 24 175 8 61 22 157 30 215 8 58 18 128 21
155 12 98 38 220 52 250 30 59 73 89 138 98 17 2 633 4 1370 3 1172 -1 1343
-3 1365 -16z m-2697 -2259 c153 -66 213 -237 134 -387 -38 -73 -146 -134 -235
-134 -163 0 -299 167 -261 323 13 56 49 120 83 149 77 65 193 86 279 49z
m2810 -6 c65 -32 88 -51 119 -100 41 -67 53 -127 38 -193 -46 -207 -281 -291
-440 -155 -47 41 -69 78 -86 150 -49 209 176 391 369 298z"/>
</g>
</svg>
