<?xml version="1.0" encoding="utf-8"?>
<!-- Generator: Adobe Illustrator 28.1.0, SVG Export Plug-In . SVG Version: 6.00 Build 0)  -->
<svg version="1.1" id="Layer_1" xmlns="http://www.w3.org/2000/svg" xmlns:xlink="http://www.w3.org/1999/xlink" x="0px" y="0px"
	 viewBox="0 0 169 30" style="enable-background:new 0 0 169 30;" xml:space="preserve">
<style type="text/css">
	.st0{fill:#FFFFFF;}
</style>
<path class="st0" d="M30.6,8.8c-0.5,0-1,0-1.5-0.1c-0.5-0.1-1-0.2-1.5-0.3v5H31v1.3h-3.3V23h-2.4V8c-0.1,0-0.1,0-0.2,0
	c-0.1,0-0.1,0-0.2,0c-0.4,0-0.7,0.1-1.1,0.2c-0.3,0.1-0.6,0.3-0.9,0.5c-0.2,0.2-0.4,0.6-0.6,1c-0.1,0.4-0.2,0.9-0.2,1.6
	c0,0.8,0.1,1.5,0.3,2c0.2,0.5,0.4,0.9,0.7,1.1c-1.7,0-2.6-1-2.6-2.9c0-0.7,0.1-1.4,0.4-2C21.1,8.9,21.5,8.4,22,8
	c0.5-0.5,1.1-0.8,1.9-1.1c0.8-0.3,1.7-0.4,2.8-0.4c0.4,0,0.7,0,1,0c0.3,0,0.7,0.1,1,0.1c0.3,0,0.6,0.1,0.9,0.1c0.3,0,0.7,0,1,0
	c0.4,0,0.7,0,1,0c0.3,0,0.6-0.1,0.9-0.2c0,0.5-0.1,0.9-0.2,1.2C32.3,8,32.1,8.3,32,8.4c-0.2,0.1-0.4,0.2-0.6,0.3
	C31.1,8.8,30.9,8.8,30.6,8.8z M40.4,12v7.5c0,0.1,0,0.3,0,0.6c0,0.2,0.1,0.4,0.1,0.7c0.1,0.2,0.2,0.4,0.3,0.5
	c0.1,0.1,0.3,0.2,0.6,0.2c0.7,0,1.2-0.8,1.6-2.4h0.8c-0.2,0.9-0.4,1.7-0.6,2.2c-0.2,0.5-0.5,0.9-0.8,1.2c-0.3,0.3-0.6,0.5-0.9,0.5
	c-0.3,0.1-0.6,0.1-0.8,0.1c-0.3,0-0.6-0.1-0.9-0.2c-0.2-0.1-0.4-0.3-0.6-0.5c-0.2-0.2-0.3-0.4-0.4-0.7c-0.1-0.2-0.2-0.5-0.2-0.8
	c-0.2,0.6-0.6,1.1-1.1,1.5c-0.5,0.4-1.1,0.6-1.8,0.6c-0.4,0-0.9-0.1-1.3-0.3c-0.4-0.2-0.8-0.5-1.2-0.9c-0.4-0.4-0.6-0.9-0.9-1.6
	c-0.2-0.6-0.3-1.4-0.3-2.4c0-0.7,0.1-1.4,0.2-2.1c0.2-0.7,0.4-1.4,0.7-2c0.3-0.6,0.8-1.1,1.3-1.5s1.2-0.6,1.9-0.6
	c0.2,0,0.4,0,0.5,0.1c0.2,0,0.4,0.1,0.6,0.2c0.2,0.1,0.4,0.2,0.5,0.4c0.2,0.1,0.3,0.3,0.4,0.6V12H40.4z M36.3,21.5
	c0.2,0,0.4-0.1,0.7-0.2c0.2-0.1,0.4-0.3,0.6-0.5c0.2-0.2,0.3-0.5,0.5-0.8c0.1-0.3,0.2-0.6,0.2-0.9v-5c-0.1-0.2-0.3-0.4-0.5-0.6
	c-0.2-0.2-0.5-0.3-0.8-0.3c-0.5,0-0.9,0.2-1.2,0.5c-0.3,0.3-0.6,0.7-0.8,1.2c-0.2,0.5-0.4,1-0.5,1.6c-0.1,0.6-0.1,1.1-0.1,1.6
	c0,1.3,0.2,2.2,0.5,2.7C35.1,21.2,35.6,21.5,36.3,21.5z M34,8.8c0-0.3,0.1-0.6,0.3-0.8c0.2-0.2,0.5-0.4,0.8-0.4
	c0.3,0,0.6,0.1,0.8,0.4c0.2,0.2,0.4,0.5,0.4,0.8c0,0.3-0.1,0.6-0.4,0.8c-0.2,0.2-0.5,0.3-0.8,0.3c-0.3,0-0.6-0.1-0.8-0.3
	S34,9.1,34,8.8z M37.5,8.8c0-0.3,0.1-0.6,0.3-0.8c0.2-0.2,0.5-0.4,0.8-0.4c0.3,0,0.6,0.1,0.8,0.4c0.2,0.2,0.4,0.5,0.4,0.8
	c0,0.3-0.1,0.6-0.4,0.8C39.3,9.9,39,10,38.7,10c-0.3,0-0.6-0.1-0.8-0.3C37.6,9.4,37.5,9.1,37.5,8.8z M45.1,12v1.8
	c0.2-0.3,0.3-0.5,0.5-0.7c0.2-0.2,0.4-0.4,0.6-0.6c0.2-0.2,0.4-0.3,0.7-0.4c0.2-0.1,0.5-0.2,0.8-0.2c0.5,0,0.9,0.1,1.1,0.4
	c0.2,0.2,0.4,0.6,0.4,0.9c0,0.2,0,0.4-0.1,0.6c-0.1,0.1-0.2,0.3-0.3,0.4c-0.1,0.1-0.2,0.2-0.3,0.2c-0.1,0-0.2,0-0.3,0
	c-0.1,0-0.2,0-0.3-0.1c-0.1-0.1-0.2-0.1-0.2-0.2c-0.1-0.1-0.2-0.1-0.3-0.2c-0.1-0.1-0.2-0.1-0.4-0.1c-0.3,0-0.7,0.1-1,0.4
	c-0.3,0.2-0.6,0.5-0.8,0.7V23h-2.2V12H45.1z M58.4,7.6v11.9c0,0.1,0,0.3,0,0.6c0,0.2,0.1,0.4,0.1,0.7c0.1,0.2,0.2,0.4,0.3,0.5
	c0.1,0.1,0.3,0.2,0.5,0.2c0.7,0,1.2-0.8,1.6-2.4h0.8c-0.2,0.9-0.4,1.7-0.6,2.2c-0.2,0.5-0.5,0.9-0.8,1.2c-0.3,0.3-0.6,0.5-0.9,0.5
	c-0.3,0.1-0.6,0.1-0.8,0.1c-0.3,0-0.6-0.1-0.9-0.2c-0.2-0.1-0.4-0.3-0.6-0.5c-0.2-0.2-0.3-0.4-0.4-0.7s-0.2-0.5-0.2-0.8
	c-0.2,0.6-0.6,1.1-1.1,1.5c-0.5,0.4-1.1,0.6-1.8,0.6c-0.4,0-0.9-0.1-1.3-0.3c-0.4-0.2-0.8-0.5-1.2-0.9c-0.4-0.4-0.6-0.9-0.9-1.6
	C50.1,19.8,50,19,50,18.1c0-0.7,0.1-1.4,0.2-2.1c0.2-0.7,0.4-1.4,0.7-2c0.3-0.6,0.8-1.1,1.3-1.5s1.2-0.6,1.9-0.6
	c0.2,0,0.4,0,0.5,0.1c0.2,0,0.4,0.1,0.6,0.2c0.2,0.1,0.4,0.2,0.5,0.4c0.2,0.1,0.3,0.3,0.4,0.6V7.9L58.4,7.6z M54.3,21.5
	c0.2,0,0.4-0.1,0.7-0.2c0.2-0.1,0.4-0.3,0.6-0.5c0.2-0.2,0.3-0.5,0.5-0.8c0.1-0.3,0.2-0.6,0.2-0.9v-5c-0.1-0.2-0.3-0.4-0.5-0.6
	c-0.2-0.2-0.5-0.3-0.8-0.3c-0.5,0-0.9,0.2-1.2,0.5c-0.3,0.3-0.6,0.7-0.8,1.2c-0.2,0.5-0.4,1-0.5,1.6c-0.1,0.6-0.1,1.1-0.1,1.6
	c0,1.3,0.2,2.2,0.5,2.7C53.2,21.2,53.7,21.5,54.3,21.5z M63.2,8.7V12h1.7v0.8h-1.7v6.7c0,0.2,0,0.4,0,0.6c0,0.2,0.1,0.4,0.1,0.6
	c0.1,0.2,0.2,0.4,0.3,0.5c0.1,0.1,0.3,0.2,0.6,0.2c0.4,0,0.8-0.2,1.1-0.6c0.4-0.4,0.7-1,0.9-1.8h0.8c-0.2,0.9-0.5,1.7-0.8,2.2
	c-0.3,0.5-0.6,0.9-0.9,1.2s-0.6,0.5-0.9,0.5c-0.3,0.1-0.6,0.1-0.8,0.1c-0.5,0-1-0.1-1.3-0.3c-0.3-0.2-0.6-0.5-0.8-0.8
	c-0.2-0.3-0.3-0.6-0.4-1c-0.1-0.4-0.1-0.8-0.1-1.1v-7.2h-0.7V12H61V9L63.2,8.7z M68.4,12v10.5c0.4-0.1,0.7-0.2,1-0.4
	c0.3-0.1,0.5-0.3,0.7-0.6c0.2-0.2,0.4-0.6,0.5-1c0.1-0.4,0.3-0.9,0.3-1.5h0.8c-0.1,0.8-0.3,1.4-0.5,1.9c-0.2,0.5-0.4,0.9-0.7,1.2
	c-0.3,0.3-0.6,0.5-1,0.7c-0.4,0.2-0.8,0.3-1.3,0.5v1.4c0,0.7-0.1,1.3-0.2,1.7c-0.1,0.5-0.4,0.9-0.6,1.2c-0.2,0.3-0.5,0.5-0.9,0.7
	c-0.3,0.1-0.7,0.2-1,0.2c-0.7,0-1.3-0.2-1.7-0.6c-0.4-0.4-0.6-0.9-0.6-1.5c0-0.4,0.1-0.7,0.3-1c0.2-0.3,0.4-0.6,0.7-0.9
	c0.3-0.2,0.6-0.5,0.9-0.7c0.3-0.2,0.7-0.4,1-0.5V12H68.4z M65.8,8.8c0-0.4,0.1-0.7,0.4-1c0.3-0.3,0.6-0.4,1-0.4c0.4,0,0.7,0.1,1,0.4
	c0.3,0.3,0.4,0.6,0.4,1c0,0.4-0.1,0.8-0.4,1c-0.3,0.3-0.6,0.4-1,0.4c-0.4,0-0.8-0.1-1-0.4C66,9.6,65.8,9.2,65.8,8.8z M65.3,27.4
	c0.4,0,0.7-0.2,0.8-0.5c0.1-0.3,0.2-0.7,0.2-1.2v-1.5c-0.7,0.3-1.3,0.7-1.6,1c-0.3,0.3-0.5,0.7-0.5,1.1c0,0.3,0.1,0.6,0.3,0.8
	C64.7,27.3,64.9,27.4,65.3,27.4z M79.1,12v7.5c0,0.1,0,0.3,0,0.6c0,0.2,0.1,0.4,0.1,0.7c0.1,0.2,0.2,0.4,0.3,0.5
	c0.1,0.1,0.3,0.2,0.6,0.2c0.7,0,1.2-0.8,1.6-2.4h0.8c-0.2,0.9-0.4,1.7-0.6,2.2c-0.2,0.5-0.5,0.9-0.8,1.2s-0.6,0.5-0.9,0.5
	c-0.3,0.1-0.6,0.1-0.8,0.1c-0.3,0-0.6-0.1-0.9-0.2c-0.2-0.1-0.4-0.3-0.6-0.5c-0.2-0.2-0.3-0.4-0.4-0.7s-0.2-0.5-0.2-0.8
	c-0.2,0.6-0.6,1.1-1.1,1.5c-0.5,0.4-1.1,0.6-1.8,0.6c-0.4,0-0.9-0.1-1.3-0.3c-0.4-0.2-0.8-0.5-1.2-0.9c-0.4-0.4-0.6-0.9-0.9-1.6
	c-0.2-0.6-0.3-1.4-0.3-2.4c0-0.7,0.1-1.4,0.2-2.1c0.2-0.7,0.4-1.4,0.7-2c0.3-0.6,0.8-1.1,1.3-1.5s1.2-0.6,1.9-0.6
	c0.2,0,0.4,0,0.5,0.1c0.2,0,0.4,0.1,0.6,0.2c0.2,0.1,0.4,0.2,0.5,0.4c0.2,0.1,0.3,0.3,0.4,0.6V12H79.1z M75,21.5
	c0.2,0,0.4-0.1,0.7-0.2c0.2-0.1,0.4-0.3,0.6-0.5c0.2-0.2,0.3-0.5,0.5-0.8c0.1-0.3,0.2-0.6,0.2-0.9v-5c-0.1-0.2-0.3-0.4-0.5-0.6
	c-0.2-0.2-0.5-0.3-0.8-0.3c-0.5,0-0.9,0.2-1.2,0.5c-0.3,0.3-0.6,0.7-0.8,1.2c-0.2,0.5-0.4,1-0.5,1.6C73,16.9,73,17.4,73,17.9
	c0,1.3,0.2,2.2,0.5,2.7C73.8,21.2,74.3,21.5,75,21.5z M72.7,8.8c0-0.3,0.1-0.6,0.3-0.8c0.2-0.2,0.5-0.4,0.8-0.4
	c0.3,0,0.6,0.1,0.8,0.4c0.2,0.2,0.4,0.5,0.4,0.8c0,0.3-0.1,0.6-0.4,0.8c-0.2,0.2-0.5,0.3-0.8,0.3c-0.3,0-0.6-0.1-0.8-0.3
	C72.8,9.4,72.7,9.1,72.7,8.8z M76.2,8.8c0-0.3,0.1-0.6,0.3-0.8c0.2-0.2,0.5-0.4,0.8-0.4c0.3,0,0.6,0.1,0.8,0.4
	c0.2,0.2,0.4,0.5,0.4,0.8c0,0.3-0.1,0.6-0.4,0.8C78,9.9,77.7,10,77.4,10c-0.3,0-0.6-0.1-0.8-0.3S76.2,9.1,76.2,8.8z M83.8,12v1.7
	c0.2-0.4,0.4-0.7,0.7-0.9c0.2-0.2,0.5-0.4,0.7-0.6c0.2-0.1,0.5-0.2,0.7-0.2c0.2,0,0.4-0.1,0.6-0.1c0.7,0,1.2,0.1,1.6,0.4
	c0.4,0.2,0.7,0.6,0.9,1c0.2,0.4,0.3,0.8,0.4,1.3c0.1,0.5,0.1,0.9,0.1,1.3c0,0.3,0,0.6,0,0.9c0,0.3,0,0.6,0,1c0,0.3,0,0.7,0,1
	c0,0.3,0,0.6,0,0.9c0,0.1,0,0.3,0,0.5c0,0.2,0.1,0.4,0.1,0.6c0.1,0.2,0.2,0.4,0.3,0.5c0.1,0.1,0.3,0.2,0.6,0.2
	c0.3,0,0.6-0.2,0.9-0.6c0.3-0.4,0.5-1,0.7-1.8h0.8c-0.2,0.9-0.4,1.7-0.6,2.2c-0.2,0.5-0.5,0.9-0.8,1.2c-0.3,0.3-0.6,0.5-0.8,0.5
	c-0.3,0.1-0.5,0.1-0.8,0.1c-0.5,0-0.9-0.1-1.2-0.3c-0.3-0.2-0.6-0.4-0.8-0.7c-0.2-0.3-0.4-0.7-0.5-1.1c-0.1-0.4-0.1-0.8-0.1-1.3
	c0-0.1,0-0.4,0-0.7c0-0.4,0-0.8,0-1.2c0-0.4,0-0.8,0-1.2c0-0.4,0-0.6,0-0.8c0-0.5,0-0.9-0.1-1.2c-0.1-0.3-0.2-0.6-0.3-0.7
	c-0.1-0.2-0.3-0.3-0.5-0.4c-0.2-0.1-0.3-0.1-0.5-0.1c-0.5,0-0.9,0.2-1.2,0.6c-0.3,0.4-0.6,1-0.8,1.8v7h-2.2V12H83.8z M100.4,19.1
	c-0.4,0.6-0.9,1.1-1.3,1.5c-0.4,0.4-0.9,0.7-1.3,1c-0.2,0.3-0.4,0.5-0.6,0.7c-0.2,0.2-0.5,0.4-0.8,0.5c-0.3,0.1-0.6,0.2-0.9,0.3
	c-0.3,0.1-0.5,0.1-0.8,0.1c-0.6,0-1.2-0.1-1.6-0.3c-0.4-0.2-0.7-0.5-1-0.8c-0.2-0.3-0.4-0.7-0.5-1.1c-0.1-0.4-0.2-0.8-0.2-1.1
	c0-0.4,0.1-0.7,0.2-1c0.2-0.3,0.4-0.5,0.6-0.6c0.4-1.1,0.8-2.2,1.1-3.3c0.4-1.1,0.6-2.2,0.7-3.3l2.2-0.4c0.4,1.4,0.6,2.5,0.9,3.4
	c0.2,0.9,0.4,1.6,0.6,2.2c0.1,0.6,0.2,1.1,0.3,1.6c0.1,0.5,0.1,1,0.1,1.5c0.2-0.2,0.5-0.3,0.7-0.5c0.2-0.2,0.4-0.4,0.6-0.5H100.4z
	 M95.8,19.9c0-0.5,0-0.9-0.1-1.2c0-0.4-0.1-0.7-0.2-1.2c-0.1-0.4-0.2-0.9-0.4-1.5c-0.1-0.6-0.3-1.4-0.5-2.4
	c-0.1,0.8-0.3,1.6-0.5,2.4c-0.3,0.7-0.5,1.5-0.7,2.3c0.1,0.1,0.2,0.2,0.3,0.4c0.1,0.1,0.2,0.3,0.2,0.6c0,0.3-0.1,0.5-0.2,0.6
	c-0.1,0.1-0.3,0.2-0.5,0.2c-0.2,0-0.4-0.1-0.6-0.3c0.1,0.5,0.3,0.9,0.6,1.2c0.3,0.3,0.7,0.4,1.2,0.4c0.5,0,0.8-0.1,1.1-0.4
	C95.7,20.9,95.8,20.5,95.8,19.9z M101.7,8.7V12h1.7v0.8h-1.7v6.7c0,0.2,0,0.4,0,0.6c0,0.2,0.1,0.4,0.1,0.6c0.1,0.2,0.2,0.4,0.3,0.5
	c0.1,0.1,0.3,0.2,0.6,0.2c0.1,0,0.3,0,0.4,0c0.2,0,0.3-0.1,0.4-0.1c0,0.1,0,0.1,0,0.2c0,0.1,0,0.1,0,0.2c0,0.2-0.1,0.5-0.2,0.7
	c-0.1,0.2-0.2,0.3-0.4,0.4c-0.2,0.1-0.4,0.2-0.6,0.2c-0.2,0.1-0.4,0.1-0.7,0.1c-0.4,0-0.8-0.1-1.1-0.3c-0.3-0.2-0.5-0.4-0.7-0.7
	c-0.2-0.3-0.3-0.6-0.3-1c-0.1-0.4-0.1-0.7-0.1-1.1v-7.3h-0.7V12h0.7V9L101.7,8.7z"/>
<path class="st0" d="M115.9,8.6v5.1h0.6c0.4,0,0.8-0.1,1.2-0.3c0.4-0.2,0.6-0.5,0.9-0.8c0.2-0.3,0.4-0.7,0.6-1.1
	c0.1-0.4,0.2-0.8,0.2-1.2c0-0.4-0.1-0.7-0.2-1.1c-0.1-0.4-0.3-0.7-0.6-1c-0.3-0.3-0.7-0.5-1.2-0.7c-0.5-0.2-1.1-0.3-1.9-0.3
	c-0.7,0-1.3,0.1-1.9,0.3c-0.6,0.2-1.1,0.5-1.5,0.9c-0.4,0.4-0.8,0.9-1,1.4c-0.2,0.6-0.4,1.2-0.4,1.9c0,0.5,0,0.9,0.1,1.3
	c0.1,0.3,0.1,0.6,0.2,0.7c0.1,0.2,0.2,0.3,0.2,0.4c0.1,0.1,0.2,0.1,0.2,0.2c-0.3,0-0.6,0-0.9-0.1c-0.3-0.1-0.6-0.3-0.8-0.5
	c-0.2-0.2-0.5-0.5-0.6-0.8c-0.1-0.4-0.2-0.8-0.2-1.3c0-0.7,0.2-1.3,0.5-2c0.4-0.6,0.8-1.2,1.5-1.7c0.6-0.5,1.3-0.9,2.2-1.1
	c0.8-0.3,1.7-0.4,2.6-0.4c0.9,0,1.7,0.1,2.4,0.3c0.7,0.2,1.3,0.4,1.8,0.7c0.5,0.3,0.9,0.7,1.1,1.2c0.3,0.4,0.4,0.9,0.4,1.5
	c0,0.3,0,0.6-0.1,0.9c-0.1,0.3-0.2,0.6-0.4,1c-0.2,0.3-0.4,0.6-0.6,0.9c-0.2,0.3-0.5,0.5-0.9,0.7c0.5,0.1,1,0.2,1.3,0.5
	c0.3,0.2,0.6,0.5,0.8,0.8c0.2,0.3,0.3,0.7,0.3,1.1c0.1,0.4,0.1,0.8,0.1,1.3c0,0.3,0,0.5,0,0.9c0,0.3,0,0.6,0,0.9c0,0.3,0,0.6,0,0.9
	c0,0.3,0,0.5,0,0.7c0,0.7,0.1,1.2,0.4,1.6c0.2,0.4,0.5,0.6,0.9,0.7c-0.4,0.1-0.8,0.2-1.1,0.3c-0.3,0.1-0.5,0.1-0.8,0.1
	c-0.7,0-1.2-0.2-1.5-0.6c-0.3-0.4-0.5-1-0.5-1.6c0-0.3,0-0.6,0-0.9c0-0.4,0.1-0.7,0.1-1.1c0-0.4,0.1-0.7,0.1-1.1c0-0.4,0-0.7,0-0.9
	c0-0.5-0.1-0.9-0.2-1.3c-0.1-0.4-0.2-0.6-0.4-0.8c-0.2-0.2-0.4-0.4-0.7-0.4c-0.2-0.1-0.5-0.1-0.8-0.1c-0.2,0-0.4,0-0.6,0
	c-0.2,0-0.4,0.1-0.6,0.1V23h-2.4V8.9L115.9,8.6z M131.7,12v7.5c0,0.1,0,0.3,0,0.6c0,0.2,0.1,0.4,0.1,0.7c0.1,0.2,0.2,0.4,0.3,0.5
	c0.1,0.1,0.3,0.2,0.6,0.2c0.7,0,1.2-0.8,1.6-2.4h0.8c-0.2,0.9-0.4,1.7-0.6,2.2c-0.2,0.5-0.5,0.9-0.8,1.2c-0.3,0.3-0.6,0.5-0.9,0.5
	c-0.3,0.1-0.6,0.1-0.8,0.1c-0.3,0-0.6-0.1-0.9-0.2c-0.2-0.1-0.4-0.3-0.6-0.5c-0.2-0.2-0.3-0.4-0.4-0.7c-0.1-0.2-0.2-0.5-0.2-0.8
	c-0.2,0.6-0.6,1.1-1.1,1.5c-0.5,0.4-1.1,0.6-1.8,0.6c-0.4,0-0.9-0.1-1.3-0.3c-0.4-0.2-0.8-0.5-1.2-0.9c-0.4-0.4-0.6-0.9-0.9-1.6
	c-0.2-0.6-0.3-1.4-0.3-2.4c0-0.7,0.1-1.4,0.2-2.1c0.2-0.7,0.4-1.4,0.7-2c0.3-0.6,0.8-1.1,1.3-1.5s1.2-0.6,1.9-0.6
	c0.2,0,0.4,0,0.5,0.1c0.2,0,0.4,0.1,0.6,0.2c0.2,0.1,0.4,0.2,0.5,0.4c0.2,0.1,0.3,0.3,0.4,0.6V12H131.7z M127.6,21.5
	c0.2,0,0.4-0.1,0.7-0.2c0.2-0.1,0.4-0.3,0.6-0.5c0.2-0.2,0.3-0.5,0.5-0.8c0.1-0.3,0.2-0.6,0.2-0.9v-5c-0.1-0.2-0.3-0.4-0.5-0.6
	c-0.2-0.2-0.5-0.3-0.8-0.3c-0.5,0-0.9,0.2-1.2,0.5c-0.3,0.3-0.6,0.7-0.8,1.2c-0.2,0.5-0.4,1-0.5,1.6c-0.1,0.6-0.1,1.1-0.1,1.6
	c0,1.3,0.2,2.2,0.5,2.7C126.5,21.2,127,21.5,127.6,21.5z M125.4,8.8c0-0.3,0.1-0.6,0.3-0.8c0.2-0.2,0.5-0.4,0.8-0.4
	c0.3,0,0.6,0.1,0.8,0.4c0.2,0.2,0.4,0.5,0.4,0.8c0,0.3-0.1,0.6-0.4,0.8c-0.2,0.2-0.5,0.3-0.8,0.3c-0.3,0-0.6-0.1-0.8-0.3
	S125.4,9.1,125.4,8.8z M128.9,8.8c0-0.3,0.1-0.6,0.3-0.8c0.2-0.2,0.5-0.4,0.8-0.4c0.3,0,0.6,0.1,0.8,0.4c0.2,0.2,0.4,0.5,0.4,0.8
	c0,0.3-0.1,0.6-0.4,0.8c-0.2,0.2-0.5,0.3-0.8,0.3c-0.3,0-0.6-0.1-0.8-0.3S128.9,9.1,128.9,8.8z M136.5,8.7V12h1.7v0.8h-1.7v6.7
	c0,0.2,0,0.4,0,0.6c0,0.2,0.1,0.4,0.1,0.6c0.1,0.2,0.2,0.4,0.3,0.5c0.1,0.1,0.3,0.2,0.6,0.2c0.4,0,0.8-0.2,1.1-0.6
	c0.4-0.4,0.7-1,0.9-1.8h0.8c-0.2,0.9-0.5,1.7-0.8,2.2c-0.3,0.5-0.6,0.9-0.9,1.2s-0.6,0.5-0.9,0.5c-0.3,0.1-0.6,0.1-0.8,0.1
	c-0.5,0-1-0.1-1.3-0.3c-0.3-0.2-0.6-0.5-0.8-0.8c-0.2-0.3-0.3-0.6-0.4-1c-0.1-0.4-0.1-0.8-0.1-1.1v-7.2h-0.7V12h0.7V9L136.5,8.7z
	 M141.7,8.7V12h1.7v0.8h-1.7v6.7c0,0.2,0,0.4,0,0.6c0,0.2,0.1,0.4,0.1,0.6c0.1,0.2,0.2,0.4,0.3,0.5c0.1,0.1,0.3,0.2,0.6,0.2
	c0.4,0,0.8-0.2,1.1-0.6c0.4-0.4,0.7-1,0.9-1.8h0.8c-0.2,0.9-0.5,1.7-0.8,2.2c-0.3,0.5-0.6,0.9-0.9,1.2s-0.6,0.5-0.9,0.5
	c-0.3,0.1-0.6,0.1-0.8,0.1c-0.5,0-1-0.1-1.3-0.3c-0.3-0.2-0.6-0.5-0.8-0.8c-0.2-0.3-0.3-0.6-0.4-1c-0.1-0.4-0.1-0.8-0.1-1.1v-7.2
	h-0.7V12h0.7V9L141.7,8.7z M151.8,15.6c0,0.8-0.1,1.7-0.2,2.6c-0.1,0.9-0.4,1.7-0.7,2.4c-0.3,0.7-0.7,1.3-1.3,1.8
	c-0.5,0.5-1.2,0.7-1.9,0.7c-0.4,0-0.8-0.1-1.1-0.2c-0.4-0.1-0.7-0.3-1-0.6c-0.3-0.2-0.5-0.6-0.7-0.9c-0.2-0.4-0.2-0.8-0.2-1.3V12
	h2.2v7.5c0,0.2,0,0.5,0,0.7c0,0.2,0.1,0.4,0.2,0.6c0.1,0.2,0.2,0.3,0.4,0.4c0.2,0.1,0.4,0.2,0.7,0.2c0.5,0,0.8-0.2,1.1-0.5
	c0.3-0.3,0.6-0.8,0.7-1.3c0.2-0.5,0.4-1.1,0.4-1.8c0.1-0.7,0.1-1.3,0.1-2c0-0.4,0-0.8,0-1.2c0-0.4-0.1-0.8-0.2-1.1
	c-0.1,0.1-0.2,0.1-0.3,0.2c-0.1,0-0.2,0-0.3,0c-0.4,0-0.6-0.1-0.8-0.4c-0.2-0.2-0.3-0.5-0.3-0.8c0-0.3,0.1-0.6,0.3-0.8
	c0.2-0.2,0.5-0.4,0.8-0.4c0.2,0,0.5,0.1,0.7,0.2c0.2,0.1,0.4,0.4,0.6,0.7c0.2,0.3,0.3,0.7,0.4,1.2C151.7,14.2,151.8,14.8,151.8,15.6
	z M155.7,12v7.5c0,0.1,0,0.3,0,0.6c0,0.2,0.1,0.4,0.1,0.7c0.1,0.2,0.2,0.4,0.3,0.5c0.1,0.1,0.3,0.2,0.5,0.2c0.7,0,1.2-0.8,1.6-2.4
	h0.8c-0.2,0.9-0.4,1.7-0.6,2.2c-0.2,0.5-0.5,0.9-0.8,1.2c-0.3,0.3-0.6,0.5-0.9,0.5c-0.3,0.1-0.6,0.1-0.8,0.1c-0.5,0-0.9-0.1-1.3-0.3
	c-0.3-0.2-0.6-0.5-0.8-0.8c-0.2-0.3-0.3-0.7-0.4-1c-0.1-0.4-0.1-0.7-0.1-1.1V12H155.7z M153.1,8.8c0-0.4,0.1-0.7,0.4-1
	c0.3-0.3,0.6-0.4,1-0.4c0.4,0,0.7,0.1,1,0.4c0.3,0.3,0.4,0.6,0.4,1c0,0.4-0.1,0.8-0.4,1c-0.3,0.3-0.6,0.4-1,0.4
	c-0.4,0-0.8-0.1-1-0.4C153.3,9.6,153.1,9.2,153.1,8.8z M160.5,7.6v8l3.8-3.6h2.1l-3.7,3h0.2c0.7,0,1.2,0.1,1.6,0.3
	c0.4,0.2,0.7,0.5,0.9,0.9c0.2,0.3,0.4,0.7,0.4,1.1c0.1,0.4,0.1,0.8,0.1,1.1c0,0.3,0,0.7,0,1.1c0,0.4,0,0.7,0,0.9c0,0.1,0,0.3,0,0.4
	c0,0.1,0.1,0.3,0.1,0.4c0.1,0.1,0.2,0.2,0.3,0.3c0.1,0.1,0.3,0.1,0.6,0.1c0.1,0,0.3,0,0.5,0c0.2,0,0.3-0.1,0.5-0.2
	c0,0.1,0,0.1,0,0.2c0,0,0,0.1,0,0.1c0,0.3-0.1,0.6-0.2,0.8c-0.1,0.2-0.3,0.4-0.4,0.5c-0.2,0.1-0.4,0.2-0.6,0.2
	c-0.2,0-0.4,0.1-0.6,0.1c-0.4,0-0.8-0.1-1.1-0.2s-0.6-0.3-0.8-0.5c-0.2-0.2-0.3-0.5-0.4-0.8c-0.1-0.3-0.1-0.6-0.1-1
	c0-0.1,0-0.2,0-0.4c0-0.2,0-0.4,0-0.6c0-0.2,0-0.4,0-0.6c0-0.2,0-0.3,0-0.4c0-0.8-0.1-1.3-0.4-1.5c-0.3-0.3-0.6-0.4-1-0.4
	c-0.4,0-0.7,0.1-1,0.4c-0.3,0.2-0.5,0.7-0.8,1.3V23h-2.2V7.9L160.5,7.6z"/>
<path class="st0" d="M16.4,8.1c-0.2-1.2-1-1.6-2.1-2.1c-1.1-0.5-3.7-1-5.7-1C6.7,5,4,5.5,2.9,6C1.8,6.5,1.1,6.9,0.8,8.1L0,14.5v8.9
	h1.4v1.4c0,1.7,2.5,1.7,2.5,0v-1.4h4.6h0h4.8v1.4c0,1.7,2.5,1.7,2.5,0v-1.4h1.4v-8.9L16.4,8.1z M5.1,6.6h3.5h3.6c0.7,0,0.7,1,0,1
	H8.5H5.1C4.4,7.6,4.4,6.6,5.1,6.6z M2.7,20.6c-0.7,0-1.2-0.5-1.2-1.2s0.5-1.2,1.2-1.2s1.2,0.5,1.2,1.2S3.3,20.6,2.7,20.6z M8.5,15.2
	H2.2c-0.6,0-0.7-0.4-0.7-0.9l0.7-4.7c0.1-0.6,0.3-0.9,1-0.9h5.3H14c0.7,0,0.9,0.4,1,0.9l0.7,4.7c0.1,0.4-0.1,0.9-0.7,0.9H8.5z
	 M14.5,20.6c-0.7,0-1.2-0.5-1.2-1.2s0.5-1.2,1.2-1.2c0.7,0,1.2,0.5,1.2,1.2S15.2,20.6,14.5,20.6z"/>
</svg>
