<svg width="169" height="30" viewBox="0 0 169 30" fill="none" xmlns="http://www.w3.org/2000/svg">
<path d="M30.6318 8.788C30.1624 8.788 29.6784 8.75133 29.1798 8.678C28.6958 8.59 28.2044 8.49467 27.7058 8.392V13.43H30.9618V14.728H27.7058V23H25.3298V7.996C25.2564 7.98133 25.1831 7.974 25.1098 7.974C25.0511 7.974 24.9851 7.974 24.9118 7.974C24.5304 7.974 24.1711 8.02533 23.8338 8.128C23.4964 8.23067 23.2031 8.40667 22.9538 8.656C22.7191 8.90533 22.5284 9.24267 22.3818 9.668C22.2498 10.0787 22.1838 10.5993 22.1838 11.23C22.1838 12.022 22.2791 12.6893 22.4698 13.232C22.6751 13.76 22.9098 14.134 23.1738 14.354C21.4284 14.354 20.5558 13.3933 20.5558 11.472C20.5558 10.768 20.6731 10.1153 20.9078 9.514C21.1424 8.91267 21.5091 8.392 22.0078 7.952C22.5064 7.49733 23.1371 7.14533 23.8998 6.896C24.6771 6.632 25.6011 6.5 26.6718 6.5C27.0384 6.5 27.3831 6.51467 27.7058 6.544C28.0431 6.57333 28.3658 6.60267 28.6738 6.632C28.9818 6.66133 29.2971 6.69067 29.6198 6.72C29.9424 6.74933 30.2871 6.764 30.6538 6.764C31.0204 6.764 31.3651 6.74933 31.6878 6.72C32.0104 6.676 32.3184 6.60267 32.6118 6.5C32.5824 7.01333 32.5091 7.424 32.3918 7.732C32.2891 8.02533 32.1498 8.25267 31.9738 8.414C31.7978 8.56067 31.5924 8.66333 31.3578 8.722C31.1378 8.766 30.8958 8.788 30.6318 8.788ZM40.3741 12V19.48C40.3741 19.6267 40.3815 19.81 40.3961 20.03C40.4108 20.25 40.4475 20.47 40.5061 20.69C40.5795 20.8953 40.6821 21.0787 40.8141 21.24C40.9461 21.3867 41.1295 21.46 41.3641 21.46C42.0828 21.46 42.6108 20.6607 42.9481 19.062H43.7621C43.6008 19.986 43.3955 20.7193 43.1461 21.262C42.8968 21.79 42.6328 22.1933 42.3541 22.472C42.0755 22.7507 41.7895 22.9267 41.4961 23C41.2028 23.088 40.9388 23.132 40.7041 23.132C40.3668 23.132 40.0735 23.0733 39.8241 22.956C39.5895 22.8387 39.3841 22.6847 39.2081 22.494C39.0468 22.3033 38.9148 22.0833 38.8121 21.834C38.7095 21.5847 38.6288 21.3207 38.5701 21.042C38.3501 21.614 37.9908 22.1053 37.4921 22.516C37.0081 22.9267 36.4141 23.132 35.7101 23.132C35.2701 23.132 34.8228 23.044 34.3681 22.868C33.9281 22.692 33.5248 22.406 33.1581 22.01C32.8061 21.5993 32.5128 21.0787 32.2781 20.448C32.0581 19.8027 31.9481 19.018 31.9481 18.094C31.9481 17.4193 32.0215 16.7153 32.1681 15.982C32.3295 15.2487 32.5788 14.5813 32.9161 13.98C33.2535 13.3787 33.6861 12.88 34.2141 12.484C34.7421 12.088 35.3801 11.89 36.1281 11.89C36.3041 11.89 36.4875 11.912 36.6781 11.956C36.8835 11.9853 37.0741 12.044 37.2501 12.132C37.4408 12.22 37.6168 12.3447 37.7781 12.506C37.9395 12.6527 38.0715 12.836 38.1741 13.056V12H40.3741ZM36.2601 21.46C36.4801 21.46 36.7001 21.4013 36.9201 21.284C37.1548 21.152 37.3601 20.9833 37.5361 20.778C37.7268 20.558 37.8808 20.3013 37.9981 20.008C38.1155 19.7147 38.1741 19.3993 38.1741 19.062V14.046C38.0715 13.8113 37.9101 13.5987 37.6901 13.408C37.4848 13.2027 37.2135 13.1 36.8761 13.1C36.4068 13.1 36.0035 13.2613 35.6661 13.584C35.3288 13.892 35.0575 14.288 34.8521 14.772C34.6468 15.2413 34.4928 15.762 34.3901 16.334C34.3021 16.8913 34.2581 17.4267 34.2581 17.94C34.2581 19.2013 34.4268 20.1033 34.7641 20.646C35.1161 21.1887 35.6148 21.46 36.2601 21.46ZM34.0161 8.81C34.0161 8.48733 34.1261 8.20867 34.3461 7.974C34.5661 7.73933 34.8448 7.622 35.1821 7.622C35.5048 7.622 35.7835 7.73933 36.0181 7.974C36.2528 8.20867 36.3701 8.48733 36.3701 8.81C36.3701 9.14733 36.2528 9.426 36.0181 9.646C35.7835 9.866 35.5048 9.976 35.1821 9.976C34.8448 9.976 34.5661 9.866 34.3461 9.646C34.1261 9.426 34.0161 9.14733 34.0161 8.81ZM37.5141 8.81C37.5141 8.48733 37.6241 8.20867 37.8441 7.974C38.0641 7.73933 38.3428 7.622 38.6801 7.622C39.0028 7.622 39.2815 7.73933 39.5161 7.974C39.7508 8.20867 39.8681 8.48733 39.8681 8.81C39.8681 9.14733 39.7508 9.426 39.5161 9.646C39.2815 9.866 39.0028 9.976 38.6801 9.976C38.3428 9.976 38.0641 9.866 37.8441 9.646C37.6241 9.426 37.5141 9.14733 37.5141 8.81ZM45.1339 12V13.848C45.3099 13.584 45.4785 13.3347 45.6399 13.1C45.8159 12.8653 46.0065 12.66 46.2119 12.484C46.4172 12.308 46.6445 12.1687 46.8939 12.066C47.1432 11.9487 47.4219 11.89 47.7299 11.89C48.2285 11.89 48.5952 12.022 48.8299 12.286C49.0645 12.5353 49.1819 12.8433 49.1819 13.21C49.1819 13.43 49.1452 13.6133 49.0719 13.76C48.9985 13.9067 48.9105 14.024 48.8079 14.112C48.7052 14.2 48.5952 14.266 48.4779 14.31C48.3605 14.3393 48.2579 14.354 48.1699 14.354C48.0379 14.354 47.9279 14.3247 47.8399 14.266C47.7665 14.2073 47.6859 14.1487 47.5979 14.09C47.5245 14.0167 47.4365 13.9507 47.3339 13.892C47.2312 13.8333 47.0992 13.804 46.9379 13.804C46.6005 13.804 46.2779 13.9213 45.9699 14.156C45.6619 14.3907 45.3832 14.64 45.1339 14.904V23H42.9339V12H45.1339ZM58.4425 7.6V19.48C58.4425 19.6267 58.4498 19.81 58.4645 20.03C58.4792 20.25 58.5158 20.47 58.5745 20.69C58.6478 20.8953 58.7505 21.0787 58.8825 21.24C59.0145 21.3867 59.1978 21.46 59.4325 21.46C60.1512 21.46 60.6792 20.6607 61.0165 19.062H61.8305C61.6692 19.986 61.4638 20.7193 61.2145 21.262C60.9652 21.79 60.7012 22.1933 60.4225 22.472C60.1438 22.7507 59.8578 22.9267 59.5645 23C59.2712 23.088 59.0072 23.132 58.7725 23.132C58.4352 23.132 58.1418 23.0733 57.8925 22.956C57.6578 22.8387 57.4525 22.6847 57.2765 22.494C57.1152 22.3033 56.9832 22.0833 56.8805 21.834C56.7778 21.5847 56.6972 21.3207 56.6385 21.042C56.4185 21.614 56.0592 22.1053 55.5605 22.516C55.0765 22.9267 54.4825 23.132 53.7785 23.132C53.3385 23.132 52.8912 23.044 52.4365 22.868C51.9965 22.692 51.5932 22.406 51.2265 22.01C50.8745 21.5993 50.5812 21.0787 50.3465 20.448C50.1265 19.8027 50.0165 19.018 50.0165 18.094C50.0165 17.4193 50.0898 16.7153 50.2365 15.982C50.3978 15.2487 50.6472 14.5813 50.9845 13.98C51.3218 13.3787 51.7545 12.88 52.2825 12.484C52.8105 12.088 53.4485 11.89 54.1965 11.89C54.3725 11.89 54.5558 11.912 54.7465 11.956C54.9518 11.9853 55.1425 12.044 55.3185 12.132C55.5092 12.22 55.6852 12.3447 55.8465 12.506C56.0078 12.6527 56.1398 12.836 56.2425 13.056V7.908L58.4425 7.6ZM54.3285 21.46C54.5485 21.46 54.7685 21.4013 54.9885 21.284C55.2232 21.152 55.4285 20.9833 55.6045 20.778C55.7952 20.558 55.9492 20.3013 56.0665 20.008C56.1838 19.7147 56.2425 19.3993 56.2425 19.062V14.046C56.1398 13.8113 55.9785 13.5987 55.7585 13.408C55.5532 13.2027 55.2818 13.1 54.9445 13.1C54.4752 13.1 54.0718 13.2613 53.7345 13.584C53.3972 13.892 53.1258 14.288 52.9205 14.772C52.7152 15.2413 52.5612 15.762 52.4585 16.334C52.3705 16.8913 52.3265 17.4267 52.3265 17.94C52.3265 19.2013 52.4952 20.1033 52.8325 20.646C53.1845 21.1887 53.6832 21.46 54.3285 21.46ZM63.2242 8.656V12H64.9182V12.77H63.2242V19.48C63.2242 19.656 63.2316 19.8613 63.2462 20.096C63.2609 20.316 63.2976 20.5287 63.3562 20.734C63.4296 20.9393 63.5322 21.1153 63.6642 21.262C63.8109 21.394 64.0089 21.46 64.2582 21.46C64.6542 21.46 65.0282 21.262 65.3802 20.866C65.7469 20.47 66.0329 19.8687 66.2382 19.062H67.0522C66.8029 19.986 66.5316 20.7193 66.2382 21.262C65.9596 21.79 65.6662 22.1933 65.3582 22.472C65.0502 22.7507 64.7422 22.9267 64.4342 23C64.1409 23.088 63.8696 23.132 63.6202 23.132C63.0922 23.132 62.6596 23.0367 62.3222 22.846C61.9849 22.6407 61.7209 22.384 61.5302 22.076C61.3396 21.768 61.2076 21.4307 61.1342 21.064C61.0609 20.6827 61.0242 20.3087 61.0242 19.942V12.77H60.2762V12H61.0242V8.964L63.2242 8.656ZM68.4235 12V22.538C68.7901 22.4207 69.1128 22.2887 69.3915 22.142C69.6848 21.9953 69.9341 21.7973 70.1395 21.548C70.3595 21.2987 70.5355 20.976 70.6675 20.58C70.8141 20.184 70.9241 19.678 70.9975 19.062H71.8115C71.6941 19.8393 71.5401 20.4773 71.3495 20.976C71.1735 21.46 70.9461 21.856 70.6675 22.164C70.4035 22.4573 70.0808 22.692 69.6995 22.868C69.3328 23.0293 68.9075 23.1833 68.4235 23.33V24.738C68.4235 25.4273 68.3501 26.0067 68.2035 26.476C68.0568 26.96 67.8515 27.3487 67.5875 27.642C67.3381 27.95 67.0448 28.17 66.7075 28.302C66.3848 28.434 66.0401 28.5 65.6735 28.5C64.9401 28.5 64.3681 28.2873 63.9575 27.862C63.5468 27.4513 63.3415 26.9453 63.3415 26.344C63.3415 25.9627 63.4295 25.618 63.6055 25.31C63.7668 25.002 63.9868 24.716 64.2655 24.452C64.5295 24.2027 64.8375 23.9753 65.1895 23.77C65.5268 23.5793 65.8715 23.4107 66.2235 23.264V12H68.4235ZM65.8275 8.832C65.8275 8.436 65.9668 8.09133 66.2455 7.798C66.5241 7.50467 66.8688 7.358 67.2795 7.358C67.6755 7.358 68.0201 7.50467 68.3135 7.798C68.6068 8.09133 68.7535 8.436 68.7535 8.832C68.7535 9.24267 68.6068 9.58733 68.3135 9.866C68.0201 10.1447 67.6755 10.284 67.2795 10.284C66.8688 10.284 66.5241 10.1447 66.2455 9.866C65.9668 9.58733 65.8275 9.24267 65.8275 8.832ZM65.2555 27.356C65.6515 27.356 65.9081 27.202 66.0255 26.894C66.1575 26.6007 66.2235 26.1973 66.2235 25.684V24.144C65.4901 24.4813 64.9695 24.8113 64.6615 25.134C64.3535 25.4713 64.1995 25.8453 64.1995 26.256C64.1995 26.5933 64.2948 26.8573 64.4855 27.048C64.6615 27.2533 64.9181 27.356 65.2555 27.356ZM79.089 12V19.48C79.089 19.6267 79.0963 19.81 79.111 20.03C79.1257 20.25 79.1623 20.47 79.221 20.69C79.2943 20.8953 79.397 21.0787 79.529 21.24C79.661 21.3867 79.8443 21.46 80.079 21.46C80.7977 21.46 81.3257 20.6607 81.663 19.062H82.477C82.3157 19.986 82.1103 20.7193 81.861 21.262C81.6117 21.79 81.3477 22.1933 81.069 22.472C80.7903 22.7507 80.5043 22.9267 80.211 23C79.9177 23.088 79.6537 23.132 79.419 23.132C79.0817 23.132 78.7883 23.0733 78.539 22.956C78.3043 22.8387 78.099 22.6847 77.923 22.494C77.7617 22.3033 77.6297 22.0833 77.527 21.834C77.4243 21.5847 77.3437 21.3207 77.285 21.042C77.065 21.614 76.7057 22.1053 76.207 22.516C75.723 22.9267 75.129 23.132 74.425 23.132C73.985 23.132 73.5377 23.044 73.083 22.868C72.643 22.692 72.2397 22.406 71.873 22.01C71.521 21.5993 71.2277 21.0787 70.993 20.448C70.773 19.8027 70.663 19.018 70.663 18.094C70.663 17.4193 70.7363 16.7153 70.883 15.982C71.0443 15.2487 71.2937 14.5813 71.631 13.98C71.9683 13.3787 72.401 12.88 72.929 12.484C73.457 12.088 74.095 11.89 74.843 11.89C75.019 11.89 75.2023 11.912 75.393 11.956C75.5983 11.9853 75.789 12.044 75.965 12.132C76.1557 12.22 76.3317 12.3447 76.493 12.506C76.6543 12.6527 76.7863 12.836 76.889 13.056V12H79.089ZM74.975 21.46C75.195 21.46 75.415 21.4013 75.635 21.284C75.8697 21.152 76.075 20.9833 76.251 20.778C76.4417 20.558 76.5957 20.3013 76.713 20.008C76.8303 19.7147 76.889 19.3993 76.889 19.062V14.046C76.7863 13.8113 76.625 13.5987 76.405 13.408C76.1997 13.2027 75.9283 13.1 75.591 13.1C75.1217 13.1 74.7183 13.2613 74.381 13.584C74.0437 13.892 73.7723 14.288 73.567 14.772C73.3617 15.2413 73.2077 15.762 73.105 16.334C73.017 16.8913 72.973 17.4267 72.973 17.94C72.973 19.2013 73.1417 20.1033 73.479 20.646C73.831 21.1887 74.3297 21.46 74.975 21.46ZM72.731 8.81C72.731 8.48733 72.841 8.20867 73.061 7.974C73.281 7.73933 73.5597 7.622 73.897 7.622C74.2197 7.622 74.4983 7.73933 74.733 7.974C74.9677 8.20867 75.085 8.48733 75.085 8.81C75.085 9.14733 74.9677 9.426 74.733 9.646C74.4983 9.866 74.2197 9.976 73.897 9.976C73.5597 9.976 73.281 9.866 73.061 9.646C72.841 9.426 72.731 9.14733 72.731 8.81ZM76.229 8.81C76.229 8.48733 76.339 8.20867 76.559 7.974C76.779 7.73933 77.0577 7.622 77.395 7.622C77.7177 7.622 77.9963 7.73933 78.231 7.974C78.4657 8.20867 78.583 8.48733 78.583 8.81C78.583 9.14733 78.4657 9.426 78.231 9.646C77.9963 9.866 77.7177 9.976 77.395 9.976C77.0577 9.976 76.779 9.866 76.559 9.646C76.339 9.426 76.229 9.14733 76.229 8.81ZM83.8487 12V13.672C84.0687 13.276 84.2887 12.9607 84.5087 12.726C84.7434 12.4767 84.9781 12.2933 85.2127 12.176C85.4474 12.0587 85.6674 11.9853 85.8727 11.956C86.0927 11.912 86.2981 11.89 86.4887 11.89C87.1487 11.89 87.6767 12.0147 88.0727 12.264C88.4834 12.5133 88.7914 12.836 88.9967 13.232C89.2021 13.6133 89.3341 14.0387 89.3927 14.508C89.4661 14.9627 89.5027 15.4027 89.5027 15.828C89.5027 16.092 89.4954 16.3853 89.4807 16.708C89.4661 17.016 89.4514 17.3387 89.4367 17.676C89.4221 17.9987 89.4074 18.3287 89.3927 18.666C89.3781 18.9887 89.3707 19.2893 89.3707 19.568C89.3707 19.6853 89.3781 19.854 89.3927 20.074C89.4074 20.2793 89.4441 20.4847 89.5027 20.69C89.5614 20.8953 89.6567 21.0787 89.7887 21.24C89.9207 21.3867 90.1114 21.46 90.3607 21.46C90.6981 21.46 90.9987 21.2693 91.2627 20.888C91.5414 20.5067 91.7687 19.898 91.9447 19.062H92.7587C92.5974 19.986 92.3921 20.7193 92.1427 21.262C91.8934 21.79 91.6294 22.1933 91.3507 22.472C91.0721 22.7507 90.7934 22.9267 90.5147 23C90.2361 23.088 89.9794 23.132 89.7447 23.132C89.2754 23.132 88.8794 23.044 88.5567 22.868C88.2341 22.6773 87.9701 22.428 87.7647 22.12C87.5594 21.812 87.4054 21.4527 87.3027 21.042C87.2147 20.6313 87.1707 20.206 87.1707 19.766C87.1707 19.634 87.1707 19.392 87.1707 19.04C87.1854 18.6733 87.1927 18.2847 87.1927 17.874C87.2074 17.4633 87.2147 17.0747 87.2147 16.708C87.2294 16.3413 87.2367 16.0847 87.2367 15.938C87.2367 15.4687 87.2001 15.08 87.1267 14.772C87.0534 14.464 86.9507 14.222 86.8187 14.046C86.6867 13.87 86.5327 13.7453 86.3567 13.672C86.1954 13.5987 86.0194 13.562 85.8287 13.562C85.3741 13.562 84.9781 13.7453 84.6407 14.112C84.3181 14.4787 84.0541 15.0947 83.8487 15.96V23H81.6487V12H83.8487ZM100.388 19.062C99.9629 19.6487 99.5229 20.14 99.0683 20.536C98.6283 20.9173 98.1956 21.2547 97.7703 21.548C97.6089 21.8413 97.4036 22.0907 97.1543 22.296C96.9049 22.4867 96.6336 22.648 96.3403 22.78C96.0616 22.8973 95.7756 22.9853 95.4823 23.044C95.2036 23.1027 94.9469 23.132 94.7123 23.132C94.0669 23.132 93.5316 23.0293 93.1063 22.824C92.6956 22.6187 92.3656 22.362 92.1163 22.054C91.8669 21.7313 91.6909 21.3793 91.5883 20.998C91.4856 20.602 91.4343 20.228 91.4343 19.876C91.4343 19.4947 91.5076 19.1647 91.6543 18.886C91.8156 18.5927 92.0063 18.3873 92.2263 18.27C92.6076 17.17 92.9816 16.0847 93.3483 15.014C93.7149 13.9287 93.9569 12.8433 94.0743 11.758L96.2963 11.318C96.6483 12.7113 96.9343 13.848 97.1543 14.728C97.3889 15.608 97.5723 16.356 97.7043 16.972C97.8509 17.5733 97.9536 18.1087 98.0123 18.578C98.0856 19.0327 98.1223 19.5387 98.1223 20.096C98.3716 19.9347 98.6063 19.766 98.8263 19.59C99.0463 19.3993 99.2589 19.2233 99.4643 19.062H100.388ZM95.7903 19.942C95.7903 19.4873 95.7609 19.084 95.7023 18.732C95.6583 18.38 95.5849 17.9913 95.4823 17.566C95.3796 17.1407 95.2476 16.6273 95.0863 16.026C94.9396 15.41 94.7636 14.6253 94.5583 13.672C94.4703 14.4933 94.2869 15.278 94.0083 16.026C93.7443 16.774 93.5023 17.544 93.2823 18.336C93.4143 18.424 93.5243 18.5487 93.6123 18.71C93.7149 18.8567 93.7663 19.0547 93.7663 19.304C93.7663 19.5827 93.6929 19.7953 93.5463 19.942C93.3996 20.0887 93.2383 20.162 93.0623 20.162C92.8276 20.162 92.6296 20.0593 92.4683 19.854C92.5856 20.3673 92.7909 20.7707 93.0843 21.064C93.3776 21.3427 93.7663 21.482 94.2503 21.482C94.7196 21.482 95.0936 21.3647 95.3723 21.13C95.6509 20.8807 95.7903 20.4847 95.7903 19.942ZM101.66 8.656V12H103.354V12.77H101.66V19.48C101.66 19.656 101.66 19.8613 101.66 20.096C101.674 20.316 101.711 20.5287 101.77 20.734C101.843 20.9393 101.938 21.1153 102.056 21.262C102.188 21.394 102.378 21.46 102.628 21.46C102.745 21.46 102.884 21.4453 103.046 21.416C103.222 21.3867 103.354 21.3573 103.442 21.328C103.456 21.4013 103.464 21.4673 103.464 21.526C103.478 21.5847 103.486 21.6507 103.486 21.724C103.486 21.9733 103.427 22.1933 103.31 22.384C103.207 22.56 103.068 22.7067 102.892 22.824C102.716 22.9267 102.518 23 102.298 23.044C102.078 23.1027 101.858 23.132 101.638 23.132C101.198 23.132 100.838 23.044 100.56 22.868C100.281 22.6773 100.054 22.4353 99.8778 22.142C99.7164 21.834 99.6064 21.4967 99.5478 21.13C99.4891 20.7633 99.4598 20.3967 99.4598 20.03V12.77H98.7118V12H99.4598V8.964L101.66 8.656Z" fill="black"/>
<path d="M115.853 8.568V13.694H116.425C116.865 13.694 117.253 13.5987 117.591 13.408C117.943 13.2027 118.236 12.946 118.471 12.638C118.72 12.3153 118.903 11.956 119.021 11.56C119.153 11.1493 119.219 10.746 119.219 10.35C119.219 9.998 119.16 9.646 119.043 9.294C118.94 8.92733 118.749 8.59733 118.471 8.304C118.192 7.996 117.803 7.754 117.305 7.578C116.806 7.38733 116.175 7.292 115.413 7.292C114.723 7.292 114.085 7.39467 113.499 7.6C112.927 7.80533 112.428 8.106 112.003 8.502C111.577 8.88333 111.24 9.35267 110.991 9.91C110.756 10.4673 110.639 11.098 110.639 11.802C110.639 12.3153 110.668 12.7333 110.727 13.056C110.785 13.364 110.851 13.606 110.925 13.782C111.013 13.958 111.093 14.09 111.167 14.178C111.255 14.2513 111.321 14.31 111.365 14.354C111.057 14.354 110.749 14.31 110.441 14.222C110.133 14.1193 109.854 13.9653 109.605 13.76C109.355 13.5547 109.15 13.2833 108.989 12.946C108.842 12.594 108.769 12.176 108.769 11.692C108.769 11.0027 108.945 10.35 109.297 9.734C109.649 9.10333 110.133 8.55333 110.749 8.084C111.365 7.6 112.083 7.21867 112.905 6.94C113.726 6.64667 114.599 6.5 115.523 6.5C116.403 6.5 117.187 6.588 117.877 6.764C118.581 6.94 119.175 7.18933 119.659 7.512C120.143 7.83467 120.509 8.22333 120.759 8.678C121.023 9.118 121.155 9.602 121.155 10.13C121.155 10.438 121.111 10.7533 121.023 11.076C120.935 11.3987 120.803 11.7213 120.627 12.044C120.465 12.3667 120.26 12.6673 120.011 12.946C119.761 13.2247 119.468 13.474 119.131 13.694C119.673 13.782 120.106 13.936 120.429 14.156C120.766 14.376 121.023 14.6473 121.199 14.97C121.375 15.278 121.485 15.6373 121.529 16.048C121.587 16.444 121.617 16.862 121.617 17.302C121.617 17.566 121.609 17.852 121.595 18.16C121.58 18.468 121.565 18.776 121.551 19.084C121.551 19.3773 121.543 19.6633 121.529 19.942C121.514 20.2207 121.507 20.47 121.507 20.69C121.507 21.35 121.624 21.8707 121.859 22.252C122.108 22.6333 122.409 22.8827 122.761 23C122.321 23.132 121.961 23.2273 121.683 23.286C121.404 23.3447 121.133 23.374 120.869 23.374C120.209 23.374 119.717 23.1613 119.395 22.736C119.087 22.3107 118.933 21.768 118.933 21.108C118.933 20.8293 118.94 20.514 118.955 20.162C118.984 19.81 119.013 19.458 119.043 19.106C119.087 18.7393 119.116 18.3873 119.131 18.05C119.16 17.698 119.175 17.3827 119.175 17.104C119.175 16.6053 119.116 16.1873 118.999 15.85C118.896 15.498 118.749 15.2267 118.559 15.036C118.383 14.8307 118.163 14.684 117.899 14.596C117.649 14.508 117.378 14.464 117.085 14.464C116.923 14.464 116.718 14.4787 116.469 14.508C116.234 14.5373 116.029 14.574 115.853 14.618V23H113.477V8.898L115.853 8.568ZM131.747 12V19.48C131.747 19.6267 131.755 19.81 131.769 20.03C131.784 20.25 131.821 20.47 131.879 20.69C131.953 20.8953 132.055 21.0787 132.187 21.24C132.319 21.3867 132.503 21.46 132.737 21.46C133.456 21.46 133.984 20.6607 134.321 19.062H135.135C134.974 19.986 134.769 20.7193 134.519 21.262C134.27 21.79 134.006 22.1933 133.727 22.472C133.449 22.7507 133.163 22.9267 132.869 23C132.576 23.088 132.312 23.132 132.077 23.132C131.74 23.132 131.447 23.0733 131.197 22.956C130.963 22.8387 130.757 22.6847 130.581 22.494C130.42 22.3033 130.288 22.0833 130.185 21.834C130.083 21.5847 130.002 21.3207 129.943 21.042C129.723 21.614 129.364 22.1053 128.865 22.516C128.381 22.9267 127.787 23.132 127.083 23.132C126.643 23.132 126.196 23.044 125.741 22.868C125.301 22.692 124.898 22.406 124.531 22.01C124.179 21.5993 123.886 21.0787 123.651 20.448C123.431 19.8027 123.321 19.018 123.321 18.094C123.321 17.4193 123.395 16.7153 123.541 15.982C123.703 15.2487 123.952 14.5813 124.289 13.98C124.627 13.3787 125.059 12.88 125.587 12.484C126.115 12.088 126.753 11.89 127.501 11.89C127.677 11.89 127.861 11.912 128.051 11.956C128.257 11.9853 128.447 12.044 128.623 12.132C128.814 12.22 128.99 12.3447 129.151 12.506C129.313 12.6527 129.445 12.836 129.547 13.056V12H131.747ZM127.633 21.46C127.853 21.46 128.073 21.4013 128.293 21.284C128.528 21.152 128.733 20.9833 128.909 20.778C129.1 20.558 129.254 20.3013 129.371 20.008C129.489 19.7147 129.547 19.3993 129.547 19.062V14.046C129.445 13.8113 129.283 13.5987 129.063 13.408C128.858 13.2027 128.587 13.1 128.249 13.1C127.78 13.1 127.377 13.2613 127.039 13.584C126.702 13.892 126.431 14.288 126.225 14.772C126.02 15.2413 125.866 15.762 125.763 16.334C125.675 16.8913 125.631 17.4267 125.631 17.94C125.631 19.2013 125.8 20.1033 126.137 20.646C126.489 21.1887 126.988 21.46 127.633 21.46ZM125.389 8.81C125.389 8.48733 125.499 8.20867 125.719 7.974C125.939 7.73933 126.218 7.622 126.555 7.622C126.878 7.622 127.157 7.73933 127.391 7.974C127.626 8.20867 127.743 8.48733 127.743 8.81C127.743 9.14733 127.626 9.426 127.391 9.646C127.157 9.866 126.878 9.976 126.555 9.976C126.218 9.976 125.939 9.866 125.719 9.646C125.499 9.426 125.389 9.14733 125.389 8.81ZM128.887 8.81C128.887 8.48733 128.997 8.20867 129.217 7.974C129.437 7.73933 129.716 7.622 130.053 7.622C130.376 7.622 130.655 7.73933 130.889 7.974C131.124 8.20867 131.241 8.48733 131.241 8.81C131.241 9.14733 131.124 9.426 130.889 9.646C130.655 9.866 130.376 9.976 130.053 9.976C129.716 9.976 129.437 9.866 129.217 9.646C128.997 9.426 128.887 9.14733 128.887 8.81ZM136.529 8.656V12H138.223V12.77H136.529V19.48C136.529 19.656 136.536 19.8613 136.551 20.096C136.566 20.316 136.602 20.5287 136.661 20.734C136.734 20.9393 136.837 21.1153 136.969 21.262C137.116 21.394 137.314 21.46 137.563 21.46C137.959 21.46 138.333 21.262 138.685 20.866C139.052 20.47 139.338 19.8687 139.543 19.062H140.357C140.108 19.986 139.836 20.7193 139.543 21.262C139.264 21.79 138.971 22.1933 138.663 22.472C138.355 22.7507 138.047 22.9267 137.739 23C137.446 23.088 137.174 23.132 136.925 23.132C136.397 23.132 135.964 23.0367 135.627 22.846C135.29 22.6407 135.026 22.384 134.835 22.076C134.644 21.768 134.512 21.4307 134.439 21.064C134.366 20.6827 134.329 20.3087 134.329 19.942V12.77H133.581V12H134.329V8.964L136.529 8.656ZM141.728 8.656V12H143.422V12.77H141.728V19.48C141.728 19.656 141.735 19.8613 141.75 20.096C141.765 20.316 141.801 20.5287 141.86 20.734C141.933 20.9393 142.036 21.1153 142.168 21.262C142.315 21.394 142.513 21.46 142.762 21.46C143.158 21.46 143.532 21.262 143.884 20.866C144.251 20.47 144.537 19.8687 144.742 19.062H145.556C145.307 19.986 145.035 20.7193 144.742 21.262C144.463 21.79 144.17 22.1933 143.862 22.472C143.554 22.7507 143.246 22.9267 142.938 23C142.645 23.088 142.373 23.132 142.124 23.132C141.596 23.132 141.163 23.0367 140.826 22.846C140.489 22.6407 140.225 22.384 140.034 22.076C139.843 21.768 139.711 21.4307 139.638 21.064C139.565 20.6827 139.528 20.3087 139.528 19.942V12.77H138.78V12H139.528V8.964L141.728 8.656ZM151.789 15.586C151.789 16.422 151.716 17.2873 151.569 18.182C151.437 19.062 151.21 19.8687 150.887 20.602C150.565 21.3353 150.147 21.944 149.633 22.428C149.12 22.8973 148.482 23.132 147.719 23.132C147.338 23.132 146.964 23.066 146.597 22.934C146.245 22.802 145.923 22.6113 145.629 22.362C145.351 22.1127 145.123 21.7973 144.947 21.416C144.786 21.0347 144.705 20.602 144.705 20.118V12H146.905V19.48C146.905 19.7293 146.92 19.9713 146.949 20.206C146.979 20.4407 147.037 20.6533 147.125 20.844C147.228 21.02 147.36 21.1667 147.521 21.284C147.697 21.4013 147.917 21.46 148.181 21.46C148.636 21.46 149.017 21.2987 149.325 20.976C149.633 20.6387 149.883 20.206 150.073 19.678C150.279 19.15 150.425 18.5633 150.513 17.918C150.601 17.258 150.645 16.6053 150.645 15.96C150.645 15.5493 150.631 15.146 150.601 14.75C150.572 14.3393 150.521 13.9727 150.447 13.65C150.374 13.7233 150.279 13.7747 150.161 13.804C150.044 13.8187 149.949 13.826 149.875 13.826C149.523 13.826 149.259 13.7013 149.083 13.452C148.907 13.2027 148.819 12.9387 148.819 12.66C148.819 12.3667 148.915 12.11 149.105 11.89C149.296 11.6553 149.575 11.538 149.941 11.538C150.191 11.538 150.425 11.6113 150.645 11.758C150.88 11.9047 151.078 12.1393 151.239 12.462C151.415 12.77 151.547 13.1807 151.635 13.694C151.738 14.2073 151.789 14.838 151.789 15.586ZM155.714 12V19.48C155.714 19.6267 155.722 19.81 155.736 20.03C155.751 20.25 155.788 20.47 155.846 20.69C155.92 20.8953 156.022 21.0787 156.154 21.24C156.286 21.3867 156.47 21.46 156.704 21.46C157.423 21.46 157.951 20.6607 158.288 19.062H159.102C158.941 19.986 158.736 20.7193 158.486 21.262C158.237 21.79 157.973 22.1933 157.694 22.472C157.416 22.7507 157.13 22.9267 156.836 23C156.543 23.088 156.279 23.132 156.044 23.132C155.531 23.132 155.113 23.0367 154.79 22.846C154.468 22.6407 154.211 22.384 154.02 22.076C153.83 21.768 153.698 21.4233 153.624 21.042C153.551 20.6607 153.514 20.294 153.514 19.942V12H155.714ZM153.118 8.832C153.118 8.436 153.258 8.09133 153.536 7.798C153.815 7.50467 154.16 7.358 154.57 7.358C154.966 7.358 155.311 7.50467 155.604 7.798C155.898 8.09133 156.044 8.436 156.044 8.832C156.044 9.24267 155.898 9.58733 155.604 9.866C155.311 10.1447 154.966 10.284 154.57 10.284C154.16 10.284 153.815 10.1447 153.536 9.866C153.258 9.58733 153.118 9.24267 153.118 8.832ZM160.462 7.6V15.586L164.246 12H166.38L162.706 14.97H162.926C163.586 14.97 164.107 15.08 164.488 15.3C164.884 15.52 165.185 15.806 165.39 16.158C165.61 16.4953 165.749 16.8693 165.808 17.28C165.881 17.676 165.918 18.05 165.918 18.402C165.918 18.71 165.903 19.062 165.874 19.458C165.859 19.8393 165.852 20.1327 165.852 20.338C165.852 20.47 165.859 20.602 165.874 20.734C165.903 20.866 165.947 20.9907 166.006 21.108C166.079 21.2107 166.182 21.2987 166.314 21.372C166.461 21.4307 166.651 21.46 166.886 21.46C167.003 21.46 167.157 21.4527 167.348 21.438C167.539 21.4087 167.693 21.3573 167.81 21.284C167.81 21.3427 167.81 21.4013 167.81 21.46C167.825 21.504 167.832 21.548 167.832 21.592C167.832 21.9147 167.773 22.1787 167.656 22.384C167.539 22.5893 167.392 22.7507 167.216 22.868C167.04 22.9707 166.849 23.0367 166.644 23.066C166.439 23.11 166.248 23.132 166.072 23.132C165.647 23.132 165.28 23.066 164.972 22.934C164.664 22.802 164.407 22.626 164.202 22.406C164.011 22.1713 163.865 21.9073 163.762 21.614C163.674 21.306 163.63 20.976 163.63 20.624C163.63 20.5653 163.63 20.4407 163.63 20.25C163.63 20.0447 163.63 19.832 163.63 19.612C163.645 19.392 163.652 19.1867 163.652 18.996C163.652 18.7907 163.652 18.6513 163.652 18.578C163.652 17.8153 163.513 17.302 163.234 17.038C162.955 16.774 162.633 16.642 162.266 16.642C161.885 16.642 161.54 16.7667 161.232 17.016C160.939 17.2653 160.682 17.7053 160.462 18.336V23H158.262V7.908L160.462 7.6Z" fill="#9E0025"/>
<path d="M16.3523 8.07792C16.1203 6.91788 15.3778 6.45387 14.2641 5.9898C13.1662 5.53235 10.5353 4.98499 8.59367 4.96967C6.65218 4.98504 4.02128 5.53235 2.92332 5.9898C1.80964 6.45381 1.06721 6.91783 0.835202 8.07792L0 14.5091V23.3707H1.43845V24.7604C1.43845 26.4548 3.91804 26.4548 3.91804 24.7604V23.3707H8.49578H8.51027H13.2695V24.7604C13.2695 26.4548 15.7491 26.4548 15.7491 24.7604V23.3707H17.1875V14.5091L16.3523 8.07792ZM5.0579 6.59305H8.51022H12.1296C12.8257 6.59305 12.8257 7.63711 12.1296 7.63711H8.50179H5.0579C4.36182 7.63711 4.36182 6.59305 5.0579 6.59305ZM2.67924 20.5927C2.0223 20.5927 1.48972 20.0601 1.48972 19.4032C1.48972 18.7463 2.0223 18.2137 2.67924 18.2137C3.33618 18.2137 3.86876 18.7463 3.86876 19.4032C3.86876 20.0601 3.33618 20.5927 2.67924 20.5927ZM8.51022 15.1868H2.20106C1.58337 15.1868 1.45405 14.743 1.51469 14.296L2.16473 9.63152C2.25403 9.06481 2.44613 8.6912 3.1814 8.6912H8.50179H14.0061C14.7414 8.6912 14.9334 9.06481 15.0227 9.63152L15.6728 14.296C15.7335 14.743 15.6041 15.1868 14.9865 15.1868H8.51022ZM14.5082 20.5927C13.8513 20.5927 13.3187 20.0601 13.3187 19.4032C13.3187 18.7463 13.8513 18.2137 14.5082 18.2137C15.1652 18.2137 15.6977 18.7463 15.6977 19.4032C15.6977 20.0601 15.1652 20.5927 14.5082 20.5927Z" fill="#9E0025"/>
</svg>
